<svg width="248" height="35" viewBox="0 0 248 35" fill="none" xmlns="http://www.w3.org/2000/svg">
<path d="M0.430664 24.8262C0.430664 24.8115 0.42334 24.7969 0.408691 24.7822C0.408691 24.7676 0.408691 24.7529 0.408691 24.7383C0.408691 24.4893 0.540527 24.3647 0.804199 24.3647C0.936035 24.3647 1.08252 24.4307 1.24365 24.5625C2.03467 25.3096 2.91357 25.9028 3.88037 26.3423C4.84717 26.7817 5.90186 27.0015 7.04443 27.0015C7.35205 27.0015 7.70361 26.9722 8.09912 26.9136C8.49463 26.8403 8.86816 26.7305 9.21973 26.584C9.57129 26.4229 9.86426 26.2178 10.0986 25.9688C10.3477 25.7197 10.4722 25.4048 10.4722 25.0239C10.4722 24.5991 10.3696 24.2183 10.1646 23.8813C9.95947 23.5444 9.68848 23.2588 9.35156 23.0244C9.21973 22.9365 9.02197 22.79 8.7583 22.585C8.49463 22.3799 8.19434 22.1455 7.85742 21.8818C7.52051 21.6182 7.16895 21.3398 6.80273 21.0469C6.43652 20.7393 6.08496 20.4536 5.74805 20.1899C5.42578 19.9116 5.13281 19.6626 4.86914 19.4429C4.60547 19.2231 4.40771 19.0547 4.27588 18.9375C3.41162 18.293 2.72314 17.6411 2.21045 16.9819C1.7124 16.3228 1.33154 15.6343 1.06787 14.9165C0.804199 14.1987 0.635742 13.459 0.5625 12.6973C0.489258 11.9209 0.452637 11.1006 0.452637 10.2363C0.452637 8.94727 0.760254 7.72412 1.37549 6.56689C1.99072 5.40967 2.85498 4.40625 3.96826 3.55664C5.09619 2.69238 6.44385 2.01123 8.01123 1.51318C9.57861 1.00049 11.3218 0.744141 13.2407 0.744141C13.4751 0.744141 13.8267 0.773438 14.2954 0.832031C14.7642 0.875977 15.2769 0.956543 15.8335 1.07373C16.4048 1.19092 16.9834 1.35205 17.5693 1.55713C18.1553 1.76221 18.6899 2.02588 19.1733 2.34814C19.3345 2.46533 19.459 2.58252 19.5469 2.69971C19.6494 2.81689 19.7153 3 19.7446 3.24902C19.8179 4.43555 19.8765 5.60742 19.9204 6.76465C19.9644 7.90723 20.0229 9.12305 20.0962 10.4121C20.0962 10.6611 20.0449 10.8296 19.9424 10.9175C19.8398 10.9907 19.708 11.0273 19.5469 11.0273C19.3857 11.0273 19.2612 10.9834 19.1733 10.8955C18.7485 10.4707 18.3091 10.0532 17.855 9.64307C17.4009 9.23291 16.9248 8.87402 16.4268 8.56641C15.9287 8.24414 15.394 7.98779 14.8228 7.79736C14.2661 7.60693 13.6582 7.51172 12.999 7.51172C12.6035 7.51172 12.208 7.54834 11.8125 7.62158C11.417 7.68018 11.0581 7.79736 10.7358 7.97314C10.4136 8.14893 10.1499 8.39062 9.94482 8.69824C9.75439 9.00586 9.65918 9.39404 9.65918 9.86279C9.65918 10.3608 9.71777 10.793 9.83496 11.1592C9.9668 11.5254 10.2817 11.8696 10.7798 12.1919L16.0532 15.7734C17.02 16.4619 17.8037 17.1504 18.4043 17.8389C19.0049 18.5127 19.4736 19.1865 19.8105 19.8604C20.1475 20.5342 20.3745 21.2007 20.4917 21.8599C20.6235 22.5044 20.6895 23.1416 20.6895 23.7715C20.6895 24.7969 20.521 25.7637 20.1841 26.6719C19.8472 27.5801 19.3857 28.4224 18.7998 29.1987C18.2139 29.9604 17.5254 30.6489 16.7344 31.2642C15.958 31.8647 15.123 32.3848 14.2295 32.8242C13.3359 33.249 12.4058 33.5713 11.439 33.791C10.4868 34.0254 9.54932 34.1426 8.62646 34.1426C7.90869 34.1426 7.19824 34.1279 6.49512 34.0986C5.80664 34.084 5.13281 34.0254 4.47363 33.9229C3.81445 33.835 3.17725 33.6885 2.56201 33.4834C1.94678 33.293 1.36084 33.022 0.804199 32.6704L0.430664 24.8262ZM35.6309 1.55713C35.6016 1.77686 35.5723 2.12842 35.543 2.61182C35.5137 3.08057 35.4697 3.62256 35.4111 4.23779C35.3672 4.85303 35.3232 5.51221 35.2793 6.21533C35.2354 6.90381 35.1841 7.57764 35.1255 8.23682C35.0815 8.88135 35.0303 9.47461 34.9717 10.0166C34.9277 10.5586 34.8911 10.9907 34.8618 11.313L35.9824 10.1704L39.1025 6.30322C39.4834 5.81982 39.8643 5.35107 40.2451 4.89697C40.626 4.42822 40.9629 4.01074 41.2559 3.64453C41.5635 3.26367 41.8125 2.94873 42.0029 2.69971C42.1934 2.45068 42.3032 2.31152 42.3325 2.28223L52.0884 1.46924C52.1177 1.45459 52.1836 1.44727 52.2861 1.44727H52.4619C52.7988 1.44727 52.9673 1.53516 52.9673 1.71094C52.9673 1.81348 52.916 1.93799 52.8135 2.08447C52.7256 2.21631 52.5864 2.39209 52.396 2.61182C52.1616 2.89014 51.8174 3.29297 51.3633 3.82031C50.9238 4.33301 50.4404 4.9043 49.9131 5.53418C49.3857 6.14941 48.8364 6.79395 48.2651 7.46777C47.7085 8.12695 47.1885 8.74219 46.7051 9.31348C46.2217 9.87012 45.8042 10.3535 45.4526 10.7637C45.1157 11.1738 44.9033 11.4375 44.8154 11.5547L43.4312 12.873C42.4937 13.7666 41.2925 14.8799 39.8276 16.2129C40.2817 16.6816 40.7651 17.1943 41.2778 17.751C41.8052 18.293 42.3032 18.8203 42.772 19.333C43.2554 19.8311 43.6875 20.2852 44.0684 20.6953C44.4639 21.1055 44.7568 21.4131 44.9473 21.6182L51.7368 29.4844C51.8101 29.5723 51.9053 29.6455 52.0225 29.7041C52.1396 29.7627 52.2568 29.814 52.374 29.8579C52.4912 29.9019 52.5864 29.9531 52.6597 30.0117C52.7476 30.0557 52.7915 30.1143 52.7915 30.1875C52.7915 30.2754 52.6963 30.4146 52.5059 30.605C52.3887 30.7222 52.1689 30.8979 51.8467 31.1323C51.5244 31.3521 51.1436 31.5938 50.7041 31.8574C50.2793 32.1211 49.8179 32.3921 49.3198 32.6704C48.8218 32.9487 48.3384 33.1978 47.8696 33.4175C47.4155 33.6519 46.9907 33.8423 46.5952 33.9888C46.2144 34.1353 45.9214 34.2085 45.7163 34.2085C45.4087 34.2085 45.0864 34.0693 44.7495 33.791C44.4126 33.5273 44.0098 33.1245 43.541 32.5825C43.0723 32.0259 42.5156 31.3228 41.8711 30.4731C41.2266 29.6235 40.4502 28.6274 39.542 27.4849C39.0146 26.8257 38.502 26.1812 38.0039 25.5513C37.5059 24.9067 37.0371 24.3062 36.5977 23.7495C36.1582 23.1782 35.7554 22.6729 35.3892 22.2334C35.0376 21.7793 34.7446 21.4131 34.5103 21.1348C34.3931 21.252 34.2686 21.3691 34.1367 21.4863C34.0049 21.5889 33.8804 21.6987 33.7632 21.8159L32.9941 31.2422C32.9795 31.374 32.9502 31.5059 32.9062 31.6377C32.877 31.7695 32.7817 31.8647 32.6206 31.9233L26.4023 34.1646C26.2412 34.2231 26.0288 34.2964 25.7651 34.3843C25.5015 34.4722 25.2451 34.5161 24.9961 34.5161C24.7764 34.5161 24.5933 34.4575 24.4468 34.3403C24.3003 34.2231 24.2271 34.0107 24.2271 33.7031C24.3003 32.8389 24.3882 31.7183 24.4907 30.3413C24.6079 28.9644 24.7251 27.397 24.8423 25.6392C24.9741 23.8667 25.106 21.9404 25.2378 19.8604C25.3843 17.7656 25.5381 15.5684 25.6992 13.2686L26.3145 4.01807C26.3291 3.75439 26.3438 3.53467 26.3584 3.35889C26.373 3.18311 26.395 3.03662 26.4243 2.91943C26.4536 2.80225 26.5049 2.71436 26.5781 2.65576C26.6514 2.59717 26.7612 2.55322 26.9077 2.52393L34.5103 0.700195C34.7007 0.641602 34.8984 0.612305 35.1035 0.612305C35.3086 0.612305 35.4478 0.678223 35.521 0.810059C35.5942 0.927246 35.6309 1.17627 35.6309 1.55713ZM55.2085 33.7031L56.3071 18.6738C56.6733 13.6348 56.9443 9.93604 57.1201 7.57764C57.2959 5.21924 57.3838 4.04736 57.3838 4.06201C57.3984 3.79834 57.4131 3.57861 57.4277 3.40283C57.4424 3.22705 57.4717 3.08057 57.5156 2.96338C57.5596 2.84619 57.6182 2.7583 57.6914 2.69971C57.7646 2.64111 57.8745 2.59717 58.021 2.56787L65.6235 0.744141C65.814 0.685547 66.0117 0.65625 66.2168 0.65625C66.4219 0.65625 66.561 0.722168 66.6343 0.854004C66.7075 0.971191 66.7441 1.22021 66.7441 1.60107C66.6416 2.50928 66.561 3.35889 66.5024 4.1499C66.4438 4.94092 66.3926 5.69531 66.3486 6.41309C66.3193 7.13086 66.29 7.82666 66.2607 8.50049C66.2314 9.15967 66.1948 9.81885 66.1509 10.478C66.063 11.1958 65.9824 11.9136 65.9092 12.6313C65.8506 13.3491 65.792 14.0962 65.7334 14.8726C65.6748 15.6343 65.6089 16.4473 65.5356 17.3115C65.4771 18.1611 65.4038 19.0913 65.3159 20.1021L64.3491 31.6816C64.3345 31.8135 64.3052 31.9453 64.2612 32.0771C64.2319 32.1943 64.1367 32.2896 63.9756 32.3628C63.9609 32.3628 63.873 32.3921 63.7119 32.4507C63.5508 32.5093 63.3384 32.5898 63.0747 32.6924C62.811 32.7803 62.5034 32.8755 62.1519 32.978C61.8003 33.0806 61.4268 33.1758 61.0312 33.2637C60.3721 33.4102 59.7935 33.5566 59.2954 33.7031C58.812 33.8496 58.3799 33.9814 57.999 34.0986C57.6182 34.2305 57.2666 34.333 56.9443 34.4062C56.6221 34.4795 56.2998 34.5161 55.9775 34.5161C55.7578 34.5161 55.5747 34.4575 55.4282 34.3403C55.2817 34.2231 55.2085 34.0107 55.2085 33.7031ZM81.5537 1.51318C81.5391 1.86475 81.5098 2.3042 81.4658 2.83154C81.4219 3.34424 81.3706 3.89355 81.312 4.47949C81.2681 5.05078 81.2095 5.63672 81.1362 6.2373C81.0776 6.82324 81.019 7.36523 80.9604 7.86328C80.9165 8.36133 80.8799 8.79346 80.8506 9.15967C80.8213 9.51123 80.8066 9.73828 80.8066 9.84082C80.748 10.749 80.6821 11.5913 80.6089 12.3677C80.5503 13.144 80.4844 13.9131 80.4111 14.6748C80.3379 15.4365 80.2573 16.2275 80.1694 17.0479C80.0962 17.8535 80.0156 18.7471 79.9277 19.7285C79.8398 20.71 79.7373 21.8013 79.6201 23.0024C79.5176 24.2036 79.4077 25.5806 79.2905 27.1333L88.3872 26.2104C88.7974 26.1665 89.1343 26.1445 89.3979 26.1445C89.7202 26.1445 89.918 26.1958 89.9912 26.2983C90.0791 26.4009 90.123 26.562 90.123 26.7817C90.123 26.811 90.1157 26.855 90.1011 26.9136C90.0864 26.9575 90.0498 27.0527 89.9912 27.1992C89.9473 27.3457 89.874 27.5581 89.7715 27.8364C89.6836 28.1147 89.5591 28.5029 89.3979 29.001L88.9146 30.4512C88.7534 30.9199 88.5996 31.3447 88.4531 31.7256C88.3213 32.0918 88.1528 32.4141 87.9478 32.6924C87.7427 32.9561 87.4863 33.1685 87.1787 33.3296C86.8711 33.4907 86.4756 33.5933 85.9922 33.6372C85.6846 33.6665 85.2671 33.6885 84.7397 33.7031C84.2124 33.7324 83.6045 33.7544 82.916 33.769C82.2275 33.7983 81.4805 33.8276 80.6748 33.8569C79.8838 33.8862 79.0708 33.9229 78.2358 33.9668C77.4155 33.9961 76.5879 34.0107 75.7529 34.0107C74.918 34.0254 74.127 34.04 73.3799 34.0547C72.6328 34.0693 71.9443 34.084 71.3145 34.0986C70.6846 34.1133 70.1646 34.1279 69.7544 34.1426C69.3735 34.1426 69.0952 34.1133 68.9194 34.0547C68.7583 33.9961 68.6777 33.9009 68.6777 33.769C68.6777 33.6079 68.729 33.3735 68.8315 33.0659C68.9341 32.7729 69.0659 32.4434 69.2271 32.0771C69.3882 31.6963 69.564 31.3081 69.7544 30.9126C69.9595 30.5024 70.1572 30.1069 70.3477 29.7261L70.9409 21.8818C71.0581 20.5488 71.1753 19.1938 71.2925 17.8169C71.4097 16.4399 71.5122 15.1069 71.6001 13.8179L71.9736 7.99512C72.0615 6.61816 72.1201 5.62207 72.1494 5.00684C72.1787 4.37695 72.1934 4.03271 72.1934 3.97412C72.2227 3.71045 72.2446 3.49072 72.2593 3.31494C72.2739 3.13916 72.2959 2.99268 72.3252 2.87549C72.3691 2.7583 72.4277 2.67041 72.501 2.61182C72.5742 2.55322 72.6841 2.50928 72.8306 2.47998L80.543 0.65625C80.7041 0.597656 80.9019 0.568359 81.1362 0.568359C81.2974 0.568359 81.4072 0.619629 81.4658 0.722168C81.5391 0.810059 81.5757 0.98584 81.5757 1.24951C81.5757 1.27881 81.5684 1.32275 81.5537 1.38135C81.5537 1.42529 81.5537 1.46924 81.5537 1.51318ZM104.01 1.51318C103.995 1.86475 103.966 2.3042 103.922 2.83154C103.878 3.34424 103.827 3.89355 103.768 4.47949C103.724 5.05078 103.666 5.63672 103.592 6.2373C103.534 6.82324 103.475 7.36523 103.417 7.86328C103.373 8.36133 103.336 8.79346 103.307 9.15967C103.277 9.51123 103.263 9.73828 103.263 9.84082C103.204 10.749 103.138 11.5913 103.065 12.3677C103.006 13.144 102.94 13.9131 102.867 14.6748C102.794 15.4365 102.713 16.2275 102.625 17.0479C102.552 17.8535 102.472 18.7471 102.384 19.7285C102.296 20.71 102.193 21.8013 102.076 23.0024C101.974 24.2036 101.864 25.5806 101.747 27.1333L110.843 26.2104C111.253 26.1665 111.59 26.1445 111.854 26.1445C112.176 26.1445 112.374 26.1958 112.447 26.2983C112.535 26.4009 112.579 26.562 112.579 26.7817C112.579 26.811 112.572 26.855 112.557 26.9136C112.542 26.9575 112.506 27.0527 112.447 27.1992C112.403 27.3457 112.33 27.5581 112.228 27.8364C112.14 28.1147 112.015 28.5029 111.854 29.001L111.371 30.4512C111.209 30.9199 111.056 31.3447 110.909 31.7256C110.777 32.0918 110.609 32.4141 110.404 32.6924C110.199 32.9561 109.942 33.1685 109.635 33.3296C109.327 33.4907 108.932 33.5933 108.448 33.6372C108.141 33.6665 107.723 33.6885 107.196 33.7031C106.668 33.7324 106.061 33.7544 105.372 33.769C104.684 33.7983 103.937 33.8276 103.131 33.8569C102.34 33.8862 101.527 33.9229 100.692 33.9668C99.8716 33.9961 99.0439 34.0107 98.209 34.0107C97.374 34.0254 96.583 34.04 95.8359 34.0547C95.0889 34.0693 94.4004 34.084 93.7705 34.0986C93.1406 34.1133 92.6206 34.1279 92.2104 34.1426C91.8296 34.1426 91.5513 34.1133 91.3755 34.0547C91.2144 33.9961 91.1338 33.9009 91.1338 33.769C91.1338 33.6079 91.1851 33.3735 91.2876 33.0659C91.3901 32.7729 91.522 32.4434 91.6831 32.0771C91.8442 31.6963 92.02 31.3081 92.2104 30.9126C92.4155 30.5024 92.6133 30.1069 92.8037 29.7261L93.397 21.8818C93.5142 20.5488 93.6313 19.1938 93.7485 17.8169C93.8657 16.4399 93.9683 15.1069 94.0562 13.8179L94.4297 7.99512C94.5176 6.61816 94.5762 5.62207 94.6055 5.00684C94.6348 4.37695 94.6494 4.03271 94.6494 3.97412C94.6787 3.71045 94.7007 3.49072 94.7153 3.31494C94.73 3.13916 94.752 2.99268 94.7812 2.87549C94.8252 2.7583 94.8838 2.67041 94.957 2.61182C95.0303 2.55322 95.1401 2.50928 95.2866 2.47998L102.999 0.65625C103.16 0.597656 103.358 0.568359 103.592 0.568359C103.753 0.568359 103.863 0.619629 103.922 0.722168C103.995 0.810059 104.032 0.98584 104.032 1.24951C104.032 1.27881 104.024 1.32275 104.01 1.38135C104.01 1.42529 104.01 1.46924 104.01 1.51318Z" fill="#1EA5B9"/>
<path d="M115.216 24.8262C115.216 24.8115 115.208 24.7969 115.194 24.7822C115.194 24.7676 115.194 24.7529 115.194 24.7383C115.194 24.4893 115.326 24.3647 115.589 24.3647C115.721 24.3647 115.868 24.4307 116.029 24.5625C116.82 25.3096 117.699 25.9028 118.666 26.3423C119.632 26.7817 120.687 27.0015 121.83 27.0015C122.137 27.0015 122.489 26.9722 122.884 26.9136C123.28 26.8403 123.653 26.7305 124.005 26.584C124.356 26.4229 124.649 26.2178 124.884 25.9688C125.133 25.7197 125.257 25.4048 125.257 25.0239C125.257 24.5991 125.155 24.2183 124.95 23.8813C124.745 23.5444 124.474 23.2588 124.137 23.0244C124.005 22.9365 123.807 22.79 123.543 22.585C123.28 22.3799 122.979 22.1455 122.643 21.8818C122.306 21.6182 121.954 21.3398 121.588 21.0469C121.222 20.7393 120.87 20.4536 120.533 20.1899C120.211 19.9116 119.918 19.6626 119.654 19.4429C119.391 19.2231 119.193 19.0547 119.061 18.9375C118.197 18.293 117.508 17.6411 116.996 16.9819C116.498 16.3228 116.117 15.6343 115.853 14.9165C115.589 14.1987 115.421 13.459 115.348 12.6973C115.274 11.9209 115.238 11.1006 115.238 10.2363C115.238 8.94727 115.545 7.72412 116.161 6.56689C116.776 5.40967 117.64 4.40625 118.753 3.55664C119.881 2.69238 121.229 2.01123 122.796 1.51318C124.364 1.00049 126.107 0.744141 128.026 0.744141C128.26 0.744141 128.612 0.773438 129.081 0.832031C129.549 0.875977 130.062 0.956543 130.619 1.07373C131.19 1.19092 131.769 1.35205 132.354 1.55713C132.94 1.76221 133.475 2.02588 133.958 2.34814C134.12 2.46533 134.244 2.58252 134.332 2.69971C134.435 2.81689 134.5 3 134.53 3.24902C134.603 4.43555 134.662 5.60742 134.706 6.76465C134.75 7.90723 134.808 9.12305 134.881 10.4121C134.881 10.6611 134.83 10.8296 134.728 10.9175C134.625 10.9907 134.493 11.0273 134.332 11.0273C134.171 11.0273 134.046 10.9834 133.958 10.8955C133.534 10.4707 133.094 10.0532 132.64 9.64307C132.186 9.23291 131.71 8.87402 131.212 8.56641C130.714 8.24414 130.179 7.98779 129.608 7.79736C129.051 7.60693 128.443 7.51172 127.784 7.51172C127.389 7.51172 126.993 7.54834 126.598 7.62158C126.202 7.68018 125.843 7.79736 125.521 7.97314C125.199 8.14893 124.935 8.39062 124.73 8.69824C124.54 9.00586 124.444 9.39404 124.444 9.86279C124.444 10.3608 124.503 10.793 124.62 11.1592C124.752 11.5254 125.067 11.8696 125.565 12.1919L130.838 15.7734C131.805 16.4619 132.589 17.1504 133.189 17.8389C133.79 18.5127 134.259 19.1865 134.596 19.8604C134.933 20.5342 135.16 21.2007 135.277 21.8599C135.409 22.5044 135.475 23.1416 135.475 23.7715C135.475 24.7969 135.306 25.7637 134.969 26.6719C134.632 27.5801 134.171 28.4224 133.585 29.1987C132.999 29.9604 132.311 30.6489 131.52 31.2642C130.743 31.8647 129.908 32.3848 129.015 32.8242C128.121 33.249 127.191 33.5713 126.224 33.791C125.272 34.0254 124.334 34.1426 123.412 34.1426C122.694 34.1426 121.983 34.1279 121.28 34.0986C120.592 34.084 119.918 34.0254 119.259 33.9229C118.6 33.835 117.962 33.6885 117.347 33.4834C116.732 33.293 116.146 33.022 115.589 32.6704L115.216 24.8262ZM143.561 33.7031C143.634 32.6338 143.707 31.6011 143.78 30.605C143.854 29.6089 143.919 28.6421 143.978 27.7046L144.769 17.3335C144.857 16.5425 144.93 15.8247 144.989 15.1802C145.047 14.521 145.091 13.8838 145.121 13.2686C145.165 12.6387 145.201 12.0088 145.23 11.3789C145.274 10.7344 145.318 10.0239 145.362 9.24756C144.879 9.23291 144.366 9.22559 143.824 9.22559C143.297 9.22559 142.74 9.22559 142.154 9.22559H137.914C137.752 9.22559 137.65 9.16699 137.606 9.0498C137.577 8.91797 137.562 8.80078 137.562 8.69824V8.54443L139.979 2.19434L139.957 2.10645C139.957 2.0332 140.001 1.97461 140.089 1.93066C140.191 1.87207 140.411 1.82812 140.748 1.79883C142.77 1.68164 144.725 1.57178 146.615 1.46924C148.519 1.35205 150.394 1.24951 152.24 1.16162C154.1 1.07373 155.953 0.98584 157.799 0.897949C159.659 0.810059 161.571 0.729492 163.534 0.65625C163.709 0.65625 163.893 0.678223 164.083 0.722168C164.288 0.766113 164.391 0.927246 164.391 1.20557C164.391 1.23486 164.383 1.26416 164.369 1.29346C164.354 1.32275 164.347 1.35205 164.347 1.38135C164.112 1.98193 163.893 2.55322 163.688 3.09521C163.497 3.63721 163.307 4.17188 163.116 4.69922C162.926 5.22656 162.728 5.76123 162.523 6.30322C162.333 6.84521 162.12 7.4165 161.886 8.01709C161.871 8.03174 161.842 8.10498 161.798 8.23682C161.754 8.354 161.688 8.49316 161.6 8.6543C161.512 8.80078 161.395 8.93994 161.249 9.07178C161.102 9.20361 160.919 9.27686 160.699 9.2915C160.626 9.27686 160.553 9.26953 160.479 9.26953C160.406 9.26953 160.326 9.26953 160.238 9.26953H154.371C154.298 10.0166 154.225 10.8076 154.151 11.6426C154.093 12.4775 154.02 13.2905 153.932 14.0815L152.328 31.2422C152.313 31.374 152.284 31.5059 152.24 31.6377C152.21 31.7695 152.115 31.8647 151.954 31.9233L145.736 34.1646C145.575 34.2231 145.362 34.2964 145.099 34.3843C144.835 34.4722 144.579 34.5161 144.33 34.5161C144.125 34.5161 143.941 34.4648 143.78 34.3623C143.634 34.2598 143.561 34.0693 143.561 33.791V33.7031ZM159.886 31.396C160.077 31.0151 160.274 30.5903 160.479 30.1216C160.685 29.6382 160.875 29.1182 161.051 28.5615L161.644 27.1113C161.38 26.7158 161.109 26.291 160.831 25.8369C160.567 25.3682 160.326 24.8921 160.106 24.4087C159.886 23.9253 159.703 23.4419 159.557 22.9585C159.425 22.4751 159.359 22.0063 159.359 21.5522C159.359 21.5229 159.469 21.501 159.688 21.4863C159.923 21.457 160.208 21.4351 160.545 21.4204C160.897 21.4058 161.271 21.3984 161.666 21.3984C162.076 21.3838 162.45 21.3765 162.787 21.3765C163.138 21.3618 163.424 21.3545 163.644 21.3545C163.878 21.3398 163.995 21.3325 163.995 21.3325C164.332 20.4536 164.662 19.6187 164.984 18.8276C165.306 18.0366 165.628 17.2383 165.951 16.4326C166.273 15.627 166.595 14.8066 166.917 13.9717C167.24 13.1221 167.562 12.2139 167.884 11.2471C168.5 9.43066 169.1 7.83398 169.686 6.45703C170.272 5.08008 170.821 3.79834 171.334 2.61182C171.393 2.46533 171.488 2.3335 171.62 2.21631C171.766 2.08447 171.92 1.97461 172.081 1.88672C172.242 1.79883 172.396 1.72559 172.542 1.66699C172.704 1.6084 172.828 1.56445 172.916 1.53516C172.975 1.52051 173.194 1.45459 173.575 1.3374C173.971 1.22021 174.417 1.0957 174.916 0.963867C175.414 0.832031 175.904 0.714844 176.388 0.612305C176.886 0.509766 177.281 0.458496 177.574 0.458496H177.97C178.204 0.458496 178.424 0.51709 178.629 0.634277C178.849 0.736816 178.995 0.949219 179.068 1.27148C179.771 3.07324 180.519 5.04346 181.31 7.18213C182.115 9.30615 182.899 11.6499 183.661 14.2134C184.071 15.5903 184.474 16.894 184.869 18.1245C185.265 19.355 185.66 20.5562 186.056 21.728C186.451 22.8999 186.847 24.0718 187.242 25.2437C187.652 26.4155 188.07 27.624 188.495 28.8691C188.626 29.3965 188.758 29.814 188.89 30.1216C189.037 30.4292 189.168 30.6709 189.286 30.8467C189.403 31.0225 189.498 31.1543 189.571 31.2422C189.645 31.3154 189.681 31.396 189.681 31.4839C189.681 31.5718 189.542 31.6597 189.264 31.7476L184.54 33.2856C184.188 33.4175 183.829 33.5493 183.463 33.6812C183.097 33.813 182.752 33.9302 182.43 34.0327C182.108 34.1353 181.822 34.2158 181.573 34.2744C181.339 34.3477 181.17 34.3843 181.068 34.3843H180.936C180.731 34.3843 180.584 34.3184 180.497 34.1865C180.409 34.0693 180.35 33.9521 180.321 33.835C180.174 33.3516 180.028 32.9194 179.881 32.5386C179.735 32.1431 179.588 31.7549 179.442 31.374C179.31 30.9785 179.171 30.561 179.024 30.1216C178.893 29.6821 178.761 29.1621 178.629 28.5615C178.6 28.4883 178.519 28.4297 178.387 28.3857C178.255 28.3271 178.094 28.2832 177.904 28.2539C177.728 28.2246 177.538 28.21 177.333 28.21C177.127 28.1953 176.937 28.188 176.761 28.188C176.205 28.188 175.75 28.1953 175.399 28.21C175.062 28.21 174.762 28.2173 174.498 28.2319C174.234 28.2319 173.978 28.2393 173.729 28.2539C173.495 28.2539 173.202 28.2539 172.85 28.2539C172.425 28.2539 171.986 28.2539 171.532 28.2539C171.092 28.2393 170.689 28.2246 170.323 28.21L169.071 28.166C168.69 29.2207 168.309 30.2095 167.928 31.1323C167.547 32.0552 167.137 33.0073 166.698 33.9888C166.668 34.106 166.595 34.2012 166.478 34.2744C166.375 34.3477 166.266 34.3843 166.148 34.3843C166.061 34.3843 166.009 34.377 165.995 34.3623C164.574 33.8496 163.38 33.3442 162.413 32.8462C161.446 32.3481 160.604 31.8647 159.886 31.396ZM174.696 11.6426C174.344 12.9463 173.993 14.1328 173.641 15.2021C173.304 16.2568 172.989 17.1943 172.696 18.0146C172.418 18.835 172.176 19.5308 171.971 20.1021C171.766 20.6587 171.62 21.0908 171.532 21.3984V21.5962C171.532 21.6841 171.524 21.7427 171.51 21.772H176.783C176.622 21.0542 176.446 20.3291 176.256 19.5967C176.08 18.8643 175.904 18.0952 175.729 17.2896C175.553 16.4839 175.377 15.6196 175.201 14.6968C175.025 13.7739 174.857 12.7559 174.696 11.6426ZM190.736 18.8057C190.736 17.1211 190.926 15.5098 191.307 13.9717C191.703 12.4189 192.259 10.9761 192.977 9.64307C193.695 8.29541 194.559 7.07959 195.57 5.99561C196.595 4.89697 197.738 3.95947 198.998 3.18311C200.257 2.39209 201.62 1.78418 203.084 1.35938C204.564 0.93457 206.117 0.722168 207.743 0.722168C209.032 0.722168 210.16 0.810059 211.126 0.98584C212.108 1.14697 212.958 1.35938 213.675 1.62305C214.408 1.87207 215.016 2.15039 215.499 2.45801C215.997 2.76562 216.407 3.05859 216.729 3.33691C216.715 3.33691 216.708 3.38818 216.708 3.49072C216.708 3.71045 216.722 4.11328 216.751 4.69922C216.795 5.28516 216.839 5.93701 216.883 6.65479C216.942 7.37256 216.986 8.10498 217.015 8.85205C217.059 9.58447 217.081 10.2217 217.081 10.7637C217.081 10.8516 217.052 10.9541 216.993 11.0713C216.935 11.1738 216.788 11.2251 216.554 11.2251C216.422 11.2251 216.261 11.2031 216.07 11.1592C215.763 11.0713 215.375 10.8735 214.906 10.5659C214.437 10.2437 213.888 9.91406 213.258 9.57715C212.643 9.22559 211.947 8.91797 211.17 8.6543C210.409 8.37598 209.574 8.23682 208.666 8.23682C207.464 8.23682 206.373 8.49316 205.392 9.00586C204.41 9.50391 203.575 10.207 202.887 11.1152C202.198 12.0088 201.664 13.0781 201.283 14.3232C200.902 15.5537 200.711 16.894 200.711 18.3442C200.711 19.6187 200.829 20.8125 201.063 21.9258C201.297 23.0391 201.649 24.0059 202.118 24.8262C202.601 25.6318 203.194 26.269 203.897 26.7378C204.601 27.2065 205.428 27.4409 206.38 27.4409C207.303 27.4409 208.351 27.2432 209.522 26.8477L210.028 23.7495H205.831C206.153 21.9771 206.432 20.5854 206.666 19.5747C206.9 18.564 207.12 17.8022 207.325 17.2896C207.53 16.7769 207.743 16.4546 207.962 16.3228C208.182 16.1909 208.438 16.125 208.731 16.125H220.289C220.626 16.125 220.868 16.147 221.014 16.1909C221.175 16.2349 221.256 16.3887 221.256 16.6523C221.256 16.7842 221.241 16.9453 221.212 17.1357C221.183 17.3115 221.146 17.5312 221.102 17.7949L220.003 21.4863C219.872 21.9551 219.762 22.3213 219.674 22.585C219.586 22.834 219.476 23.0244 219.344 23.1562C219.212 23.2734 219.029 23.3467 218.795 23.376C218.575 23.3906 218.253 23.3979 217.828 23.3979C217.594 23.3979 217.455 23.4932 217.411 23.6836C217.367 23.874 217.33 24.0718 217.301 24.2769C217.213 24.9214 217.125 25.5659 217.037 26.2104C216.949 26.8403 216.861 27.4336 216.773 27.9902C216.7 28.5322 216.62 29.0156 216.532 29.4404C216.444 29.8506 216.356 30.1509 216.268 30.3413C215.272 30.9712 214.364 31.5278 213.543 32.0112C212.738 32.48 211.932 32.8682 211.126 33.1758C210.321 33.498 209.471 33.7397 208.578 33.9009C207.684 34.062 206.659 34.1426 205.501 34.1426C203.436 34.1426 201.502 33.769 199.701 33.022C197.899 32.2749 196.332 31.2275 194.999 29.8799C193.68 28.5176 192.64 26.8989 191.878 25.0239C191.117 23.1489 190.736 21.0762 190.736 18.8057ZM242.635 14.7627C242.577 14.9678 242.467 15.2607 242.306 15.6416C242.145 16.0078 241.954 16.4253 241.734 16.894C241.529 17.3628 241.302 17.8682 241.053 18.4102C240.819 18.9375 240.584 19.4722 240.35 20.0142C240.262 20.2192 240.182 20.373 240.108 20.4756C240.035 20.5635 239.918 20.6294 239.757 20.6733C239.596 20.7173 239.369 20.7466 239.076 20.7612C238.797 20.7612 238.402 20.7686 237.889 20.7832L234.835 20.8491L234.22 27.5728H245.492V28.4297C245.462 28.459 245.338 28.6567 245.118 29.0229C244.898 29.3745 244.642 29.7993 244.349 30.2974C244.056 30.7954 243.749 31.3008 243.426 31.8135C243.104 32.3115 242.833 32.7144 242.613 33.022C242.467 33.2856 242.298 33.4907 242.108 33.6372C241.917 33.7983 241.705 33.9155 241.471 33.9888C241.251 34.062 241.002 34.106 240.724 34.1206C240.46 34.1353 240.167 34.1426 239.845 34.1426C238.526 34.1426 237.149 34.1133 235.714 34.0547C234.293 33.9961 232.872 33.9229 231.451 33.835C230.03 33.7471 228.639 33.6445 227.276 33.5273C225.929 33.4248 224.676 33.3149 223.519 33.1978C223.417 33.1831 223.321 33.1245 223.233 33.022C223.16 32.9194 223.124 32.8022 223.124 32.6704C223.065 32.6704 223.102 32.5459 223.233 32.2969C223.38 32.0479 223.578 31.7256 223.827 31.3301C224.076 30.9346 224.347 30.4878 224.64 29.9897C224.947 29.4771 225.24 28.9644 225.519 28.4517L225.87 23.5078C225.929 22.6729 225.973 22.0503 226.002 21.6401C226.046 21.23 226.068 21.0103 226.068 20.981C225.189 20.9663 224.53 20.9224 224.09 20.8491C223.666 20.7759 223.453 20.6147 223.453 20.3657C223.453 20.2485 223.556 20.0288 223.761 19.7065C223.98 19.3843 224.244 19.0181 224.552 18.6079C224.859 18.1831 225.182 17.7437 225.519 17.2896C225.87 16.8354 226.178 16.418 226.441 16.0371L226.991 8.56641H226.925C226.603 8.58105 226.31 8.5957 226.046 8.61035C225.782 8.61035 225.541 8.61035 225.321 8.61035C224.618 8.61035 224.112 8.57373 223.805 8.50049C223.512 8.4126 223.365 8.25879 223.365 8.03906C223.365 7.93652 223.453 7.72412 223.629 7.40186C223.805 7.07959 224.024 6.71338 224.288 6.30322C224.552 5.87842 224.83 5.43896 225.123 4.98486C225.416 4.51611 225.68 4.08398 225.914 3.68848L227.232 1.44727H236.417L247.25 0.65625C247.264 0.65625 247.301 0.663574 247.359 0.678223C247.433 0.678223 247.506 0.700195 247.579 0.744141C247.652 0.773438 247.718 0.832031 247.777 0.919922C247.85 1.00781 247.887 1.13232 247.887 1.29346L247.557 2.43604C247.455 2.7583 247.33 3.10254 247.184 3.46875C247.037 3.82031 246.876 4.18652 246.7 4.56738L245.733 7.11621C245.631 7.36523 245.514 7.55566 245.382 7.6875C245.25 7.81934 244.972 7.89258 244.547 7.90723C243.434 7.93652 242.188 7.98779 240.812 8.06104C239.449 8.11963 237.882 8.17822 236.109 8.23682C236.051 8.44189 236.021 8.61035 236.021 8.74219C236.021 8.85938 236.007 9.09375 235.978 9.44531L235.868 10.4561C235.838 10.9248 235.794 11.4302 235.736 11.9722C235.677 12.5142 235.604 13.1807 235.516 13.9717C236.263 13.9424 236.988 13.9131 237.691 13.8838C238.409 13.8545 239.061 13.8325 239.647 13.8179C240.233 13.7886 240.738 13.7666 241.163 13.752C241.603 13.7373 241.91 13.73 242.086 13.73C242.203 13.73 242.335 13.7739 242.481 13.8618C242.628 13.9497 242.701 14.1182 242.701 14.3672C242.701 14.4844 242.679 14.6162 242.635 14.7627Z" fill="#D43241"/>
</svg>
